<?xml version="1.0" encoding="UTF-8" standalone="no"?>
<!DOCTYPE svg PUBLIC "-//W3C//DTD SVG 1.1//EN" "http://www.w3.org/Graphics/SVG/1.1/DTD/svg11.dtd">
<svg width="100%" height="100%" viewBox="0 0 1080 1080" version="1.1" xmlns="http://www.w3.org/2000/svg" xmlns:xlink="http://www.w3.org/1999/xlink" xml:space="preserve" xmlns:serif="http://www.serif.com/" style="fill-rule:evenodd;clip-rule:evenodd;stroke-linecap:round;stroke-linejoin:round;stroke-miterlimit:1.5;">
    <g id="Background" transform="matrix(1.29032,0,0,1.29032,-217.419,-213.548)">
        <g id="Outline" transform="matrix(0.775,0,0,0.775,146.8,194.175)">
            <circle cx="568" cy="503" r="540" style="fill:rgb(43,54,65);stroke:rgb(44,54,65);stroke-width:1px;"/>
        </g>
        <circle id="Circle" cx="587" cy="584" r="403" style="fill:rgb(43,68,96);stroke:rgb(43,68,96);stroke-width:0.78px;stroke-linecap:butt;stroke-miterlimit:2;"/>
    </g>
    <g transform="matrix(1.38367,0,0,1.38367,55.7143,152.571)">
        <path d="M192.5,35C163.52,35 140,58.52 140,87.5L140,472.5C140,501.48 163.52,525 192.5,525L490,525L490,105L192.5,105C182.84,105 175,97.16 175,87.5C175,77.84 182.84,70 192.5,70L525,70L525,455L560,455L560,35L192.5,35ZM245,175C264.32,175 280,190.68 280,210C280,229.32 264.32,245 245,245C225.68,245 210,229.32 210,210C210,190.68 225.68,175 245,175ZM245,332.5L278.879,374.852L350,280L455,420L175,420L245,332.5Z" style="fill:rgb(198,198,198);fill-rule:nonzero;stroke:rgb(198,198,198);stroke-width:0.72px;stroke-linecap:butt;stroke-miterlimit:2;"/>
    </g>
</svg>
